<svg id="Capa_1" data-name="Capa 1" xmlns="http://www.w3.org/2000/svg" viewBox="0 0 71.97 74.37"><defs><style>.cls-1{fill:#123274;}</style></defs><path class="cls-1" d="M58.35,19.66l0,0a29,29,0,0,1,8.21,18.14A28.46,28.46,0,0,1,40.17,68.14,28.15,28.15,0,0,1,20.58,62l0,0A28.36,28.36,0,0,0,68.22,39.29a28.88,28.88,0,0,0-9.87-19.63"/><path class="cls-1" d="M8.05,52a1.74,1.74,0,0,0-.66,2.43c.41,1.06,1.1,1.57,1.8,1.2.59-.15.68-.71.43-2L9.5,53.2a5.18,5.18,0,0,1-.09-2.32,1.4,1.4,0,0,1,1-1.21c1.27-.57,2.54.24,3.26,2,.74,2,.37,3.46-1.17,4.15l-.37-1c1-.38,1.28-1.42.74-2.8-.46-1.21-1.19-1.74-2-1.44-.6.31-.74.94-.52,2.19l.08.58.05.49a3.64,3.64,0,0,1,.12,1.69,1.56,1.56,0,0,1-1,1.09c-1.21.51-2.38-.22-3-1.82-.68-1.79-.28-3.13,1-3.63Z"/><polygon class="cls-1" points="7.23 41.78 11.5 38.17 11.58 39.51 7.88 42.53 9.1 43.85 11.66 43.76 11.69 44.78 4.33 44.95 4.33 43.9 7.21 43.87 7.96 43.87 7.74 43.61 7.5 43.28 4.24 39.86 4.24 38.41 7.23 41.78"/><path class="cls-1" d="M10.47,30.42l2.81,1-.33,1-2.82-1L5.06,33l.45-1.28,3.12-.81L9,30.78c.16-.07.26-.09.53-.22A6.36,6.36,0,0,1,9,29.83L7.05,27.28l.37-1.17Z"/><polygon class="cls-1" points="15.41 16.98 13.86 18.81 18.49 22.57 17.39 24.01 12.77 20.25 11.23 22.07 10.14 21.26 14.37 16.05 15.41 16.98"/><polygon class="cls-1" points="25.31 10.08 21.58 12.24 22.4 13.49 25.75 11.54 26.39 12.63 23.03 14.58 23.93 16.22 27.67 13.96 28.39 15.16 23.1 18.21 19.4 11.9 24.58 8.79 25.31 10.08"/><path class="cls-1" d="M35.29,9.13c-.43-.72-.54-1-.83-1.54A11.18,11.18,0,0,1,34.2,9.3l-.36,1.34L36,10.33Zm4.17,3.73L37.55,13l-.95-1.6-3,.5-.43,1.81-1.84.43,1.95-8,1.79-.27Z"/><path class="cls-1" d="M51.19,15.2l-1.5-.62.57-2.18a5.13,5.13,0,0,0,.28-1.05c.11-.4.25-.76.3-1a4.53,4.53,0,0,0,.3-.94l.18-.47a17.16,17.16,0,0,1-1,1.56,4.2,4.2,0,0,1-.44.72l-2.07,2.91-1.36-.37L46,10.22c0-.14,0-.47,0-.78a6.42,6.42,0,0,1-.07-1V7.53l-.18.87c-.2.95-.32,1.34-.64,2.54l-.56,2.37L42.92,13l1.81-7.14,2.45.43.36,3.43a13.87,13.87,0,0,1,.07,2.35c.29-.51.38-.67.67-1.13s.42-.68.57-.86l1.94-2.77L53.12,8Z"/><path class="cls-1" d="M51.06,38.89c2.11-1.44,3.84-2.24,4.93-2.16.65,0,1.46.23,1.46,1s-.82,1.58-2.33,2.14a16.06,16.06,0,0,1-5.67.33,10.21,10.21,0,0,1,1.61-1.27M21.35,41.46c-1.31-.12-2-.6-2-1.6,0-.21.09-3.37,7.44-3.73a11,11,0,0,1,3.18.1,7.55,7.55,0,0,0-.82.73l-.44.37C27,38.92,24,41.68,21.35,41.46M37.21,29.33c-.85.76-2.65,2.48-4.35,4.13l-1.93,1.82a23,23,0,0,0-4.72-.4c-3.55,0-6.81,1-8.28,2.45a2.59,2.59,0,0,0-.86,1.94c.06,1.68,2,2.55,2.6,2.78A8.48,8.48,0,0,0,28.3,41a42.57,42.57,0,0,0,4.85-4.21c1.14.26,2.41.59,3.77,1l1.27.37c-1.63,1.59-3.33,3.34-4.9,4.67l-.09.13c-2.19,1.93-3.73,3.27-6,3.86A4.61,4.61,0,0,1,24,46.54H24a5.72,5.72,0,0,0,4.68,1.56c2.07-.18,4.41-1.49,6.81-3.75l3.27-3.19L41,38.92l4.64,1.34s.08.07.08.07-2.9,2.8-2.9,2.8l-2.44,2.36a34.26,34.26,0,0,1-5.32,4.72C32.65,52,30.57,52.92,28.76,53a6,6,0,0,1-3.46-.62.25.25,0,0,0-.13,0,7,7,0,0,0,5.39,2.24c2.92-.06,5.55-1.51,9.63-5.22,1.83-1.74,3.7-3.57,5.34-5.33l3-3a24,24,0,0,0,5.72.65c2.9-.15,5.35-1.43,5.36-3.11a2.74,2.74,0,0,0-1.5-2.17,7.33,7.33,0,0,0-3.49-.94,10.89,10.89,0,0,0-6.72,2.75L46.4,39.63c.05-.05-.53-.13-.53-.13l-4.22-1.31C42.92,37.1,44,36,44.91,35.27a11.42,11.42,0,0,1,6.36-3c1.09,0,2.95,0,3.71.55l.1,0a7.33,7.33,0,0,0-5.36-2,10.46,10.46,0,0,0-6.62,2.65,44.77,44.77,0,0,0-4.27,4l-2.17-.72-.48-.14L33.92,36c.08,0,1.28-1.2,1.28-1.2,1.54-1.46,2.91-2.9,4.07-3.85,4-3.41,6.55-3.83,8.35-3.85a8.1,8.1,0,0,1,4.56,1.17h.08a8.56,8.56,0,0,0-6.71-2.78c-2.46,0-5.45,1.34-8.34,3.88"/><path class="cls-1" d="M55.35,9.72c.16,0,.37.16.46,0s-.07-.23-.18-.24l-.28-.15-.18.22Zm.18.95-.21-.09-.06-.72-.18-.13-.27.49h-.18L55.26,9l.48.33c.25.07.42.24.25.51s-.32.22-.55.1Zm.7-.34A1,1,0,0,0,55.81,9a.91.91,0,0,0-1.37.36,1.11,1.11,0,0,0,.37,1.43,1.19,1.19,0,0,0,1.42-.45m-2-1a1.19,1.19,0,0,1,1.63-.6,1.14,1.14,0,0,1,.63,1.55,1.22,1.22,0,0,1-1.58.64,1.33,1.33,0,0,1-.68-1.59"/></svg>