<?xml version="1.0" encoding="utf-8"?>
<!-- Generator: Adobe Illustrator 22.1.0, SVG Export Plug-In . SVG Version: 6.00 Build 0)  -->
<svg version="1.1" id="Capa_1" xmlns="http://www.w3.org/2000/svg" xmlns:xlink="http://www.w3.org/1999/xlink" x="0px" y="0px"
	 viewBox="0 0 24 18.1" style="enable-background:new 0 0 24 18.1;" xml:space="preserve">
<style type="text/css">
	.st0{fill:#FFFFFF;}
	.st1{fill:#80A7D8;}
	.st2{fill:#F1BD51;}
	.st3{fill:#7A361D;}
</style>
<title>Page 1 Copy</title>
<desc>Created with Sketch.</desc>
<g id="Componentes">
	<g id="_x30_5.Header---Cultura" transform="translate(-661.000000, -204.000000)">
		<g id="Page-1-Copy" transform="translate(661.000000, 204.000000)">
			<polygon id="Fill-1" class="st0" points="0,11.3 24,11.3 24,6.5 0,6.5 			"/>
			<polygon id="Fill-2" class="st1" points="0,6.5 24,6.5 24,1.7 0,1.7 			"/>
			<polygon id="Fill-3" class="st1" points="0,16.1 24,16.1 24,11.3 0,11.3 			"/>
			<g id="Group-244" transform="translate(10.119048, 5.058061)">
				<path id="Fill-52" class="st2" d="M1.8,3.8L0.5,5.2l0,0l0,0l1.4-1.3L1.8,3.8z"/>
				<path id="Fill-54" class="st3" d="M0.5,5.3C0.5,5.3,0.5,5.2,0.5,5.3l1.3-1.5l0,0L0.5,5.3C0.5,5.2,0.5,5.3,0.5,5.3L0.5,5.3
					l1.4-1.4L0.5,5.3L0.5,5.3"/>
				<polygon id="Fill-56" class="st3" points="1.8,3.8 0.9,4.8 1.9,3.9 				"/>
				<path id="Fill-58" class="st2" d="M1.3,4.2C1,4.3,1,4.5,0.8,4.6c-0.3,0-0.3,0.2-0.4,0.3C0.3,5,0.3,4.9,0.3,5c0,0,0.1,0.1,0.2,0
					s0.1-0.2,0.4-0.3s0.3-0.3,0.5-0.3L1.3,4.2z"/>
				<path id="Fill-60" class="st3" d="M0.3,5L0.3,5L0.3,5C0.2,4.9,0.2,4.9,0.3,5c0-0.1,0-0.1,0.1-0.1c0,0,0,0,0.1-0.1
					c0-0.1,0.1-0.2,0.2-0.2C0.9,4.5,0.9,4.5,1,4.4s0.2-0.2,0.3-0.2l0,0C1.2,4.2,1.1,4.3,1,4.4C0.9,4.5,0.9,4.5,0.8,4.6
					c-0.2,0-0.3,0.1-0.4,0.2C0.4,4.8,0.4,4.9,0.3,5C0.3,4.9,0.3,4.9,0.3,5C0.2,4.9,0.2,4.9,0.3,5c0,0,0,0,0.1-0.1l0.1-0.1
					c0.1,0,0.1-0.1,0.3-0.2c0.1,0,0.2-0.1,0.3-0.1c0.1-0.1,0.1-0.1,0.3-0.2C1.2,4.4,1.2,4.4,1.1,4.5S1,4.6,0.8,4.7
					c-0.2,0-0.2,0.1-0.3,0.1L0.4,4.9C0.4,5,0.3,5,0.3,5"/>
				<path id="Fill-64" class="st2" d="M1.9,3.9l1.3-1.4l0,0l0,0L1.8,3.8L1.9,3.9z"/>
				<path id="Fill-66" class="st3" d="M1.9,3.9L1.9,3.9l1.3-1.4l0,0l0,0L1.8,3.8l1.4-1.3c0,0,0,0,0.1,0c0,0,0,0,0,0.1L1.9,3.9z"/>
				<polygon id="Fill-68" class="st3" points="1.9,3.9 2.8,2.9 1.8,3.8 				"/>
				<path id="Fill-70" class="st2" d="M2.4,3.6C2.7,3.5,2.7,3.2,3,3.2C3.2,3.1,3.3,3,3.4,2.9c0.1-0.1,0.1,0,0.1-0.1
					c0,0-0.1-0.1-0.2,0S3.2,3,2.9,3.1C2.6,3.2,2.6,3.3,2.4,3.4V3.6z"/>
				<path id="Fill-72" class="st3" d="M2.4,3.6L2.4,3.6c0.1-0.1,0.2-0.2,0.3-0.2C2.8,3.3,2.9,3.3,3,3.2C3.2,3.1,3.2,3,3.3,3
					c0,0,0-0.1,0.1-0.1h0.1l0,0c0,0-0.1,0-0.2,0L3.2,3C3.1,3,3.1,3,2.9,3.1c-0.1,0-0.2,0.1-0.3,0.2c0,0-0.1,0.1-0.2,0.1
					c0.1,0,0.2-0.1,0.2-0.2C2.7,3.1,2.7,3.1,2.9,3c0.2-0.1,0.2-0.1,0.3-0.2l0.1-0.1c0.1-0.1,0.2-0.1,0.2,0l0,0l0,0H3.4
					c0,0,0,0-0.1,0.1C3.2,3,3.1,3.1,3,3.2c-0.1,0-0.2,0.1-0.3,0.2C2.6,3.4,2.5,3.5,2.4,3.6"/>
				<path id="Fill-76" class="st2" d="M1.9,3.8L0.5,2.5l0,0l0,0l1.3,1.4L1.9,3.8z"/>
				<path id="Fill-78" class="st3" d="M1.8,3.9L0.5,2.5c0,0,0,0,0-0.1c0,0,0,0,0.1,0L2,3.7l0,0L0.5,2.5l0,0l0,0L1.8,3.9z"/>
				<polygon id="Fill-80" class="st3" points="1.9,3.8 0.9,2.9 1.8,3.9 				"/>
				<path id="Fill-82" class="st2" d="M1.6,3.3C1.5,3,1.3,3,1.2,2.7S0.9,2.4,0.9,2.3c-0.1-0.1,0-0.2-0.1-0.2c0,0-0.1,0.1,0,0.2
					C0.9,2.5,1,2.5,1.1,2.8s0.2,0.3,0.3,0.6L1.6,3.3z"/>
				<path id="Fill-84" class="st3" d="M1.4,3.3c0-0.1-0.1-0.2-0.2-0.3c0,0-0.1-0.1-0.1-0.2C1,2.6,1,2.5,0.9,2.5L0.8,2.4
					c-0.1-0.1,0-0.2,0-0.2l0,0l0,0v0.1c0,0,0,0,0.1,0.1C1,2.5,1.1,2.6,1.2,2.7c0,0.1,0.1,0.2,0.2,0.3c0,0.1,0.1,0.2,0.2,0.3l0,0
					c0-0.1-0.1-0.2-0.2-0.3C1.3,2.9,1.2,2.8,1.2,2.7C1.1,2.6,1,2.5,0.9,2.4c0,0-0.1,0-0.1-0.1V2.2l0,0c0,0,0,0.1,0,0.2
					c0,0,0,0.1,0.1,0.1C1,2.5,1,2.6,1.1,2.8c0,0.1,0.1,0.2,0.2,0.3C1.3,3.1,1.4,3.2,1.4,3.3"/>
				<path id="Fill-88" class="st2" d="M1.8,3.9l1.4,1.3l0,0l0,0L1.9,3.8L1.8,3.9z"/>
				<path id="Fill-90" class="st3" d="M3.2,5.3L3.2,5.3L1.8,3.9l0,0L3.2,5.3L3.2,5.3C3.2,5.3,3.2,5.2,3.2,5.3L1.9,3.8L3.2,5.3
					C3.2,5.2,3.3,5.3,3.2,5.3L3.2,5.3"/>
				<polygon id="Fill-92" class="st3" points="1.8,3.9 2.8,4.8 1.9,3.8 				"/>
				<path id="Fill-94" class="st2" d="M2.2,4.4C2.3,4.7,2.5,4.7,2.6,5c0,0.2,0.2,0.3,0.2,0.4c0.1,0.1,0.1,0.1,0.1,0.1s0.1-0.1,0-0.2
					C2.8,5.2,2.7,5.2,2.6,4.9C2.5,4.7,2.4,4.7,2.3,4.4H2.2z"/>
				<path id="Fill-96" class="st3" d="M2.9,5.6C2.9,5.6,2.9,5.5,2.9,5.6c0-0.1,0-0.1-0.1-0.2c0,0,0,0-0.1-0.1c0,0-0.1-0.1-0.2-0.3
					c0-0.1-0.1-0.2-0.2-0.3c0,0-0.1-0.1-0.1-0.2l0,0c0,0.1,0.1,0.2,0.2,0.3C2.5,4.9,2.5,5,2.6,5.1c0,0.1,0.1,0.2,0.2,0.2
					c0,0,0.1,0,0.1,0.1C2.9,5.4,2.9,5.5,2.9,5.6C2.9,5.5,2.9,5.5,2.9,5.6c0,0,0-0.1,0-0.2c0,0,0-0.1-0.1-0.1
					C2.7,5.2,2.7,5.1,2.6,4.9c0-0.1-0.1-0.2-0.2-0.3c0,0-0.1-0.1-0.1-0.2c0,0.1,0.1,0.2,0.2,0.3c0,0,0.1,0.1,0.1,0.2
					c0.1,0.2,0.1,0.2,0.2,0.3l0.1,0.1C2.9,5.4,2.9,5.5,2.9,5.6L2.9,5.6z"/>
				<path id="Fill-100" class="st2" d="M1.8,3.8L1.1,5.7l0,0l0,0L1.8,3.8L1.8,3.8z"/>
				<path id="Fill-102" class="st3" d="M1.1,5.7L1.1,5.7l0.6-1.9l0,0L1.1,5.7L1.1,5.7L1.1,5.7l0.8-1.8L1.1,5.7
					C1.2,5.7,1.1,5.7,1.1,5.7"/>
				<polygon id="Fill-104" class="st3" points="1.8,3.8 1.4,5.1 1.9,3.9 				"/>
				<path id="Fill-106" class="st2" d="M1.5,4.4C1.3,4.6,1.3,4.8,1.1,4.9C0.9,5.1,0.9,5.3,0.9,5.4C0.8,5.5,0.7,5.5,0.7,5.5
					s0.1,0,0.2-0.1s0-0.2,0.3-0.4c0.2-0.2,0.2-0.3,0.4-0.5L1.5,4.4z"/>
				<path id="Fill-108" class="st3" d="M0.8,5.5L0.8,5.5L0.8,5.5C0.7,5.5,0.8,5.5,0.8,5.5c0-0.1,0.1-0.1,0.1-0.1V5.3
					C0.9,5.2,1,5.1,1.1,5s0.1-0.2,0.2-0.3c0-0.1,0.1-0.2,0.2-0.3l0,0C1.4,4.5,1.3,4.6,1.3,4.7S1.2,4.9,1.1,5S0.9,5.2,0.9,5.3v0.1
					C0.8,5.4,0.8,5.5,0.8,5.5L0.8,5.5c0,0,0.1,0,0.1-0.1c0,0,0-0.1,0.1-0.1C1,5.2,1.1,5.1,1.2,5s0.2-0.2,0.2-0.3
					c0,0,0.1-0.1,0.2-0.2C1.5,4.6,1.4,4.7,1.4,4.7c0,0.1-0.1,0.2-0.2,0.3C1,5.1,1,5.2,1,5.3c0,0,0,0.1-0.1,0.1
					C0.9,5.5,0.8,5.5,0.8,5.5"/>
				<path id="Fill-112" class="st2" d="M1.9,3.9l0.7-1.8l0,0l0,0L1.8,3.8L1.9,3.9z"/>
				<path id="Fill-114" class="st3" d="M2,3.9L2,3.9l0.6-1.8l0,0l0,0L1.8,3.8L2.6,2l0,0l0,0l0,0L2,3.9z"/>
				<polygon id="Fill-116" class="st3" points="1.9,3.9 2.4,2.6 1.8,3.8 				"/>
				<path id="Fill-118" class="st2" d="M2.3,3.4c0.2-0.2,0.1-0.5,0.3-0.6c0.2-0.2,0.2-0.3,0.2-0.4s0.1-0.1,0.1-0.1s-0.1,0-0.2,0.1
					c0,0,0.1,0.1-0.2,0.3C2.3,2.9,2.4,3.1,2.2,3.2L2.3,3.4z"/>
				<path id="Fill-120" class="st3" d="M2.3,3.4L2.3,3.4c0.1-0.1,0.1-0.2,0.2-0.3c0-0.1,0.1-0.2,0.2-0.3c0.1-0.1,0.1-0.3,0.1-0.4
					V2.3c0-0.1,0.1-0.1,0.1-0.1l0,0c0,0-0.1,0-0.2,0.1c0,0,0,0.1-0.1,0.1c0,0.1-0.1,0.2-0.2,0.3c0,0.1,0,0.2-0.1,0.3
					c0,0.1-0.1,0.2-0.2,0.2C2.2,3.1,2.2,3,2.3,2.9c0-0.1,0.1-0.2,0.2-0.3c0.2,0,0.2-0.1,0.2-0.2c0,0,0-0.1,0.1-0.1
					C2.9,2.2,2.9,2.2,3,2.2l0,0l0,0c0,0-0.1,0-0.1,0.1v0.1C2.8,2.5,2.8,2.7,2.6,2.8C2.5,2.9,2.5,3,2.5,3.1C2.4,3.2,2.4,3.3,2.3,3.4"
					/>
				<path id="Fill-124" class="st2" d="M1.9,3.8L0.1,3.1l0,0l0,0l1.7,0.8L1.9,3.8z"/>
				<path id="Fill-126" class="st3" d="M1.8,4L0.1,3.1l0,0c0,0,0,0,0.1,0L2,3.8l0,0L0.1,3.1l0,0l0,0L1.8,4z"/>
				<polygon id="Fill-128" class="st3" points="1.9,3.8 0.6,3.4 1.8,3.9 				"/>
				<path id="Fill-130" class="st2" d="M1.4,3.5C1.2,3.3,1,3.3,0.8,3.1C0.7,2.9,0.5,2.9,0.4,2.8c-0.1,0-0.1-0.1-0.1-0.1
					s0,0.1,0.1,0.2c0.1,0.1,0.2,0,0.4,0.3C1,3.4,1.1,3.4,1.3,3.6L1.4,3.5z"/>
				<path id="Fill-132" class="st3" d="M1.3,3.6C1.2,3.5,1.1,3.4,1,3.4S0.8,3.3,0.7,3.2C0.6,3,0.5,3,0.5,3S0.4,3,0.4,2.9
					c-0.1,0-0.1-0.1-0.1-0.2l0,0l0,0c0,0,0,0.1,0.1,0.1h0.1c0.1,0,0.2,0.1,0.3,0.2C0.9,3.1,1,3.1,1.1,3.2C1.2,3.3,1.3,3.3,1.3,3.6
					L1.3,3.6c0-0.2-0.1-0.3-0.2-0.3S0.9,3.2,0.8,3.1C0.7,2.9,0.6,2.9,0.5,2.9H0.4c-0.1,0-0.1-0.1-0.1-0.1l0,0c0,0,0,0.1,0.1,0.2
					c0,0,0.1,0,0.1,0.1c0.1,0,0.2,0.1,0.3,0.2C0.9,3.4,1,3.5,1.1,3.5C1.1,3.4,1.2,3.5,1.3,3.6"/>
				<path id="Fill-136" class="st2" d="M1.8,4l1.8,0.6l0,0l0,0L1.9,3.8L1.8,4z"/>
				<path id="Fill-138" class="st3" d="M3.6,4.7L3.6,4.7L1.8,4l0,0L3.6,4.7C3.6,4.6,3.6,4.6,3.6,4.7C3.7,4.6,3.6,4.6,3.6,4.7
					L1.9,3.8L3.6,4.7C3.6,4.6,3.7,4.6,3.6,4.7C3.7,4.6,3.6,4.7,3.6,4.7"/>
				<polygon id="Fill-140" class="st3" points="1.8,3.9 3.1,4.4 1.9,3.8 				"/>
				<path id="Fill-142" class="st2" d="M2.4,4.3c0.1,0.2,0.4,0.2,0.5,0.4c0.2,0.2,0.3,0.2,0.4,0.2C3.4,4.9,3.4,5,3.4,5
					s0-0.1-0.1-0.2c-0.1-0.1-0.2,0-0.4-0.3C2.8,4.3,2.6,4.4,2.5,4.2L2.4,4.3z"/>
				<path id="Fill-144" class="st3" d="M3.4,5L3.4,5C3.4,4.9,3.3,4.9,3.4,5L3.2,4.9C3.1,4.9,3,4.8,2.9,4.7C2.8,4.6,2.7,4.5,2.6,4.5
					S2.4,4.4,2.3,4.3l0,0c0.2,0.1,0.3,0.1,0.3,0.2c0.1,0,0.2,0.1,0.3,0.2s0.2,0.2,0.3,0.2h0.1C3.4,4.9,3.4,5,3.4,5L3.4,5
					c0-0.1,0-0.1-0.1-0.2c0,0-0.1,0-0.1-0.1C3.1,4.7,3,4.6,2.9,4.5c0,0-0.1-0.1-0.2-0.1C2.6,4.3,2.5,4.3,2.5,4.2
					c0.1,0.1,0.1,0.1,0.2,0.2c0.1,0,0.2,0.1,0.3,0.2s0.2,0.2,0.3,0.2C3.3,4.8,3.4,4.8,3.4,5C3.4,4.9,3.5,5,3.4,5L3.4,5L3.4,5"/>
				<path id="Fill-148" class="st2" d="M1.8,3.8L0.1,4.6l0,0l0,0L1.8,3.8L1.8,3.8z"/>
				<path id="Fill-150" class="st3" d="M0.1,4.7C0.1,4.7,0.1,4.6,0.1,4.7C0,4.6,0.1,4.6,0.1,4.7l1.7-0.9l0,0L0.1,4.7
					C0.1,4.6,0.1,4.6,0.1,4.7C0.1,4.6,0.1,4.6,0.1,4.7L1.9,4L0.1,4.7L0.1,4.7"/>
				<polygon id="Fill-152" class="st3" points="1.8,3.8 0.6,4.4 1.9,3.9 				"/>
				<path id="Fill-160" class="st2" d="M1.9,4l1.7-0.9l0,0l0,0L1.8,3.8L1.9,4z"/>
				<path id="Fill-162" class="st3" d="M1.9,4L1.9,4l1.7-0.9l0,0l0,0L1.8,3.8l1.8-0.7l0,0l0,0L1.9,4z"/>
				<polygon id="Fill-164" class="st3" points="1.9,3.9 3.1,3.4 1.8,3.8 				"/>
				<path id="Fill-172" class="st2" d="M1.9,3.8L1.2,2l0,0l0,0L1.9,3.8L1.9,3.8z"/>
				<path id="Fill-174" class="st3" d="M1.8,3.9L1.1,2.1l0,0l0,0l0,0L1.8,3.9L1.8,3.9L1.1,2l0,0l0,0L1.8,3.9z"/>
				<polygon id="Fill-176" class="st3" points="1.9,3.8 1.4,2.6 1.8,3.9 				"/>
				<path id="Fill-184" class="st2" d="M1.8,3.9l0.8,1.8l0,0l0,0L1.9,3.8L1.8,3.9z"/>
				<path id="Fill-186" class="st3" d="M2.6,5.7L2.6,5.7L1.8,3.9l0,0L2.6,5.7L2.6,5.7L2.6,5.7L1.9,3.8L2.6,5.7L2.6,5.7"/>
				<polygon id="Fill-188" class="st3" points="1.8,3.9 2.4,5.1 1.9,3.8 				"/>
				<path id="Fill-196" class="st2" d="M1.9,3.1c0.4,0,0.7,0.3,0.7,0.8c0,0.4-0.3,0.8-0.8,0.8C1.4,4.7,1,4.3,1,3.9
					C1.1,3.4,1.4,3.1,1.9,3.1"/>
				<path id="Fill-198" class="st3" d="M1.9,3.1c-0.4,0-0.8,0.4-0.8,0.8s0.3,0.8,0.8,0.8c0.4,0,0.7-0.4,0.7-0.8
					C2.6,3.4,2.3,3.1,1.9,3.1 M1.9,4.7c-0.4,0-0.8-0.4-0.8-0.8c0-0.4,0.4-0.8,0.8-0.8c0.4,0,0.7,0.3,0.7,0.8
					C2.6,4.3,2.3,4.7,1.9,4.7"/>
			</g>
		</g>
	</g>
</g>
</svg>
